<svg width="36" height="36" viewBox="0 0 36 36" fill="none" xmlns="http://www.w3.org/2000/svg">
<path fill-rule="evenodd" clip-rule="evenodd" d="M0 18C0 10.8097 0 7.21458 1.71338 4.62511C2.47849 3.46878 3.46878 2.47849 4.62511 1.71338C7.21458 0 10.8097 0 18 0C25.1903 0 28.7854 0 31.3749 1.71338C32.5312 2.47849 33.5215 3.46878 34.2866 4.62511C36 7.21458 36 10.8097 36 18C36 25.1903 36 28.7854 34.2866 31.3749C33.5215 32.5312 32.5312 33.5215 31.3749 34.2866C28.7854 36 25.1903 36 18 36C10.8097 36 7.21458 36 4.62511 34.2866C3.46878 33.5215 2.47849 32.5312 1.71338 31.3749C0 28.7854 0 25.1903 0 18ZM27.3185 18.0005C27.3185 23.1471 23.1463 27.3193 17.9997 27.3193C12.853 27.3193 8.68086 23.1471 8.68086 18.0005C8.68086 12.8538 12.853 8.68164 17.9997 8.68164C23.1463 8.68164 27.3185 12.8538 27.3185 18.0005ZM17.9997 24.1665C21.4051 24.1665 24.1657 21.4058 24.1657 18.0005C24.1657 14.5951 21.4051 11.8344 17.9997 11.8344C14.5943 11.8344 11.8337 14.5951 11.8337 18.0005C11.8337 21.4058 14.5943 24.1665 17.9997 24.1665ZM27.6866 10.4031C28.8959 10.4031 29.8762 9.42276 29.8762 8.21345C29.8762 7.00414 28.8959 6.0238 27.6866 6.0238C26.4772 6.0238 25.4969 7.00414 25.4969 8.21345C25.4969 9.42276 26.4772 10.4031 27.6866 10.4031Z" fill="#242B35"/>
</svg>
