<svg width="80" height="80" viewBox="0 0 80 80" fill="none" xmlns="http://www.w3.org/2000/svg">
<path d="M68.0373 20.4969H46.1464V17.5273H47.6979C50.0858 17.5273 52.0373 15.5879 52.0373 13.1879V10.8363C52.0373 8.44846 50.0979 6.49695 47.6979 6.49695H33.6737C31.2858 6.49695 29.3343 8.43634 29.3343 10.8363V13.1879C29.3343 15.5757 31.2737 17.5273 33.6737 17.5273H35.2252V20.4969H18.3282C16.51 20.4969 15.0191 21.9757 15.0191 23.806V34.9212H7.54032C5.39487 34.9212 3.64941 36.6666 3.64941 38.8121V42.8485C3.64941 44.9939 5.39487 46.7394 7.54032 46.7394H15.0191V57.8545C15.0191 59.6727 16.4979 61.1636 18.3282 61.1636H30.1343V65.8545H26.4737C25.461 65.8545 24.4898 66.2568 23.7738 66.9728C23.0577 67.6889 22.6555 68.6601 22.6555 69.6727C22.6555 70.6853 23.0577 71.6565 23.7738 72.3726C24.4898 73.0886 25.461 73.4909 26.4737 73.4909H65.9888C67.0015 73.4909 67.9726 73.0886 68.6887 72.3726C69.4047 71.6565 69.807 70.6853 69.807 69.6727C69.807 68.6601 69.4047 67.6889 68.6887 66.9728C67.9726 66.2568 67.0015 65.8545 65.9888 65.8545H62.3282V61.1636H68.0373C72.6191 61.1636 76.3403 57.4424 76.3403 52.8606V28.8C76.3403 24.2303 72.6191 20.4969 68.0373 20.4969ZM31.5403 13.1879V10.8363C31.5403 9.66058 32.4979 8.70301 33.6737 8.70301H47.6979C48.8737 8.70301 49.8312 9.66058 49.8312 10.8363V13.1879C49.8312 14.3636 48.8737 15.3212 47.6979 15.3212H33.6615C32.4979 15.3212 31.5403 14.3636 31.5403 13.1879ZM37.4191 17.5273H43.9403V20.4969H37.4191V17.5273ZM7.54032 44.5333C6.60699 44.5333 5.85547 43.7818 5.85547 42.8485V38.8121C5.85547 37.8788 6.60699 37.1273 7.54032 37.1273H15.0191V44.5454H7.54032V44.5333ZM17.2252 57.8545V23.806C17.2252 23.2 17.7221 22.703 18.3282 22.703H24.8979V58.9576H18.3282C17.7221 58.9576 17.2252 58.4606 17.2252 57.8545ZM32.3403 61.1636H36.1464V65.8545H32.3403V61.1636ZM54.1221 61.1636V65.8545H38.3524V61.1636H54.1221ZM67.6131 69.6727C67.6131 70.5697 66.8858 71.297 65.9888 71.297H26.4737C26.0429 71.297 25.6297 71.1258 25.3251 70.8212C25.0205 70.5166 24.8494 70.1035 24.8494 69.6727C24.8494 69.2419 25.0205 68.8288 25.3251 68.5242C25.6297 68.2196 26.0429 68.0485 26.4737 68.0485H66.0009C66.8858 68.0606 67.6131 68.7879 67.6131 69.6727ZM60.1343 65.8545H56.3282V61.1636H60.1343V65.8545ZM61.2373 58.9576H27.104V22.8969H64.2676V58.9576H61.2373ZM74.1464 52.8606C74.1464 56.2303 71.407 58.9576 68.0494 58.9576H66.4737V22.703H68.0494C71.4191 22.703 74.1464 25.4424 74.1464 28.8V52.8606Z" fill="#242B35" stroke="#242B35"/>
<path d="M57.1411 26.4119H34.232C33.2837 26.4119 32.3741 26.7886 31.7036 27.4592C31.033 28.1298 30.6562 29.0393 30.6562 29.9876C30.6562 30.936 31.033 31.8455 31.7036 32.5161C32.3741 33.1866 33.2837 33.5634 34.232 33.5634H57.1411C58.0894 33.5634 58.999 33.1866 59.6695 32.5161C60.3401 31.8455 60.7169 30.936 60.7169 29.9876C60.7169 29.0393 60.3401 28.1298 59.6695 27.4592C58.999 26.7886 58.0894 26.4119 57.1411 26.4119ZM57.1411 31.3694H34.232C33.8655 31.3694 33.5141 31.2239 33.2549 30.9647C32.9958 30.7056 32.8502 30.3541 32.8502 29.9876C32.8502 29.6211 32.9958 29.2697 33.2549 29.0105C33.5141 28.7514 33.8655 28.6058 34.232 28.6058H57.1411C57.9047 28.6058 58.5229 29.224 58.5229 29.9876C58.5108 30.7513 57.9047 31.3694 57.1411 31.3694ZM57.1411 37.2482H34.232C33.2837 37.2482 32.3741 37.625 31.7036 38.2955C31.033 38.9661 30.6563 39.8756 30.6562 40.824C30.6563 41.7723 31.033 42.6818 31.7036 43.3524C32.3741 44.023 33.2837 44.3997 34.232 44.3997H57.1411C58.0894 44.3997 58.999 44.023 59.6695 43.3524C60.3401 42.6818 60.7169 41.7723 60.7169 40.824C60.7169 39.8756 60.3401 38.9661 59.6695 38.2955C58.999 37.625 58.0894 37.2482 57.1411 37.2482ZM57.1411 42.2058H34.232C33.8655 42.2058 33.5141 42.0602 33.2549 41.8011C32.9958 41.5419 32.8502 41.1905 32.8502 40.824C32.8502 40.4575 32.9958 40.106 33.2549 39.8469C33.5141 39.5877 33.8655 39.4422 34.232 39.4422H57.1411C57.5076 39.4422 57.859 39.5877 58.1182 39.8469C58.3773 40.106 58.5229 40.4575 58.5229 40.824C58.5229 41.1905 58.3773 41.5419 58.1182 41.8011C57.859 42.0602 57.5076 42.2058 57.1411 42.2058ZM57.1411 48.0846H34.232C33.2837 48.0846 32.3741 48.4613 31.7036 49.1319C31.033 49.8025 30.6562 50.712 30.6562 51.6603C30.6562 52.6087 31.033 53.5182 31.7036 54.1888C32.3741 54.8594 33.2837 55.2361 34.232 55.2361H57.1411C58.0894 55.2361 58.999 54.8594 59.6695 54.1888C60.3401 53.5182 60.7169 52.6087 60.7169 51.6603C60.7169 50.712 60.3401 49.8025 59.6695 49.1319C58.999 48.4613 58.0894 48.0846 57.1411 48.0846ZM57.1411 53.0422H34.232C33.8655 53.0422 33.5141 52.8966 33.2549 52.6374C32.9958 52.3783 32.8502 52.0268 32.8502 51.6603C32.8502 51.2939 32.9958 50.9424 33.2549 50.6833C33.5141 50.4241 33.8655 50.2785 34.232 50.2785H57.1411C57.5076 50.2785 57.859 50.4241 58.1182 50.6833C58.3773 50.9424 58.5229 51.2939 58.5229 51.6603C58.5229 52.0268 58.3773 52.3783 58.1182 52.6374C57.859 52.8966 57.5076 53.0422 57.1411 53.0422Z" fill="#242B35" stroke="#242B35"/>
</svg>
