<svg width="80" height="80" viewBox="0 0 80 80" fill="none" xmlns="http://www.w3.org/2000/svg">
<path d="M60.8295 39.3162C60.8129 39.2948 60.7958 39.274 60.7781 39.2537C58.9956 37.2014 57.3176 35.4878 55.6948 33.8307C48.6886 26.6757 44.06 21.949 44.004 2.49559C44.0022 1.86981 43.6273 1.30559 43.0511 1.06137C42.475 0.817 41.8089 0.940281 41.3579 1.37434C30.2725 12.045 25.9687 24.9723 28.5387 39.8397C27.2122 38.6689 26.3165 36.9067 25.8253 34.5193C25.7033 33.9262 25.2494 33.457 24.6608 33.3153C24.0729 33.1737 23.4545 33.3845 23.0758 33.857C15.624 43.1511 12.6358 51.7029 14.1939 59.2748C15.7334 66.7554 21.7156 73.3167 31.974 78.7762C32.6331 79.1268 33.4475 78.9625 33.9187 78.3847C34.3904 77.8065 34.3876 76.9756 33.912 76.4009C29.635 71.2304 29.5483 66.947 33.6397 62.9203C36.5845 60.0192 38.4104 55.7604 39.0901 50.2265C42.4772 55.562 43.332 60.4504 41.7092 65.0851C41.5128 65.6461 41.6517 66.2698 42.0675 66.6945C42.4831 67.1193 43.1037 67.2712 43.6689 67.0868C45.4261 66.5132 46.8412 65.327 47.9017 63.5442C49.1506 68.184 48.3823 72.4925 45.5876 76.6251C45.1872 77.2175 45.2398 78.0062 45.7156 78.5401C46.02 78.8817 46.4478 79.0629 46.8826 79.0629C47.1275 79.0629 47.3747 79.0054 47.6033 78.8864C57.5292 73.7206 63.9673 66.4009 65.7315 58.2754C67.1415 51.78 65.4464 45.2242 60.8295 39.3162ZM62.6776 57.612C61.3895 63.5451 57.1819 69.0497 50.6576 73.4495C52.2579 68.7325 51.8233 63.7345 49.3489 58.53C49.0881 57.9815 48.5364 57.6384 47.9384 57.6384C47.8859 57.6384 47.8331 57.6411 47.7801 57.6464C47.1229 57.7131 46.5787 58.1857 46.4208 58.8272C46.1947 59.7447 45.9226 60.5439 45.6031 61.2273C45.822 56.0142 43.6265 50.5173 39.0389 44.8243C38.6262 44.3122 37.9369 44.1134 37.315 44.3268C36.6929 44.5404 36.2711 45.1208 36.2601 45.7784C36.1445 52.6428 34.5251 57.6611 31.4472 60.6933C28.6714 63.4253 26.2969 67.5275 28.2081 72.8681C22.0014 68.6142 18.3253 63.8461 17.2548 58.6448C16.0212 52.6512 18.1842 45.7845 23.6873 38.202C24.9992 41.3367 27.2129 43.3672 30.2965 44.2543C30.8306 44.4073 31.4047 44.2668 31.8062 43.8842C32.2079 43.5015 32.3767 42.9345 32.2495 42.3943C28.9334 28.3225 31.7803 16.4723 40.9539 6.28028C41.2445 13.8718 42.3811 19.6279 44.4708 24.1989C46.7315 29.1436 49.8506 32.3287 53.4622 36.017C55.0445 37.6331 56.6806 39.3037 58.3922 41.2722C62.3997 46.4161 63.8819 52.0656 62.6776 57.612Z" fill="#242B35" stroke="#242B35"/>
</svg>
