<svg width="158" height="32" viewBox="0 0 158 32" fill="none" xmlns="http://www.w3.org/2000/svg">
<path d="M5.1 28.0001L7.26667 18.6334L0 12.3334L9.6 11.5001L13.3333 2.66675L17.0667 11.5001L26.6667 12.3334L19.4 18.6334L21.5667 28.0001L13.3333 23.0334L5.1 28.0001Z" fill="#A98F4B"/>
<path d="M37.1 28.0001L39.2667 18.6334L32 12.3334L41.6 11.5001L45.3333 2.66675L49.0667 11.5001L58.6667 12.3334L51.4 18.6334L53.5667 28.0001L45.3333 23.0334L37.1 28.0001Z" fill="#A98F4B"/>
<path d="M69.1 28.0001L71.2667 18.6334L64 12.3334L73.6 11.5001L77.3333 2.66675L81.0667 11.5001L90.6667 12.3334L83.4 18.6334L85.5667 28.0001L77.3333 23.0334L69.1 28.0001Z" fill="#A98F4B"/>
<path d="M101.1 28.0001L103.267 18.6334L96 12.3334L105.6 11.5001L109.333 2.66675L113.067 11.5001L122.667 12.3334L115.4 18.6334L117.567 28.0001L109.333 23.0334L101.1 28.0001Z" fill="#A98F4B"/>
<path d="M133.1 28.0001L135.267 18.6334L128 12.3334L137.6 11.5001L141.333 2.66675L145.067 11.5001L154.667 12.3334L147.4 18.6334L149.567 28.0001L141.333 23.0334L133.1 28.0001Z" fill="#A98F4B"/>
</svg>
