<svg width="18" height="16" viewBox="0 0 18 16" fill="none" xmlns="http://www.w3.org/2000/svg">
<path d="M12.0271 0.701484V0.698242H12.8711L13.1794 0.759834C13.385 0.79982 13.5717 0.852222 13.7394 0.917056C13.9071 0.981889 14.0694 1.05753 14.2263 1.14397C14.3832 1.23041 14.5255 1.31849 14.6532 1.40817C14.7798 1.49678 14.8934 1.59079 14.9941 1.6902C15.0936 1.79069 15.2489 1.81662 15.4599 1.768C15.6709 1.71937 15.8981 1.65183 16.1416 1.56539C16.385 1.47895 16.6258 1.3817 16.8638 1.27364C17.1019 1.16558 17.2469 1.09697 17.2988 1.06779C17.3497 1.03755 17.3768 1.02134 17.38 1.01917L17.3832 1.01431L17.3995 1.0062L17.4157 0.998098L17.4319 0.989994L17.4482 0.981889L17.4514 0.977027L17.4563 0.973785L17.4612 0.970543L17.4644 0.965681L17.4806 0.960818L17.4968 0.957577L17.4936 0.981889L17.4887 1.0062L17.4806 1.03051L17.4725 1.05483L17.4644 1.07104L17.4563 1.08724L17.4482 1.11156C17.4427 1.12776 17.4373 1.14937 17.4319 1.17639C17.4265 1.20341 17.3751 1.31145 17.2777 1.50056C17.1803 1.68966 17.0586 1.88146 16.9125 2.07596C16.7665 2.27046 16.6355 2.4174 16.5198 2.51683C16.4029 2.61732 16.3255 2.68755 16.2876 2.72753C16.2498 2.76859 16.2038 2.80641 16.1497 2.84099L16.0685 2.89448L16.0523 2.90259L16.0361 2.91069L16.0328 2.91555L16.028 2.91879L16.0231 2.92204L16.0198 2.9269L16.0036 2.935L15.9874 2.94311L15.9841 2.94797L15.9793 2.95121L15.9744 2.95445L15.9711 2.95932L15.9679 2.96418L15.963 2.96742L15.9582 2.97066L15.9549 2.97552H16.0361L16.4905 2.87827C16.7935 2.81344 17.083 2.7351 17.3589 2.64325L17.7971 2.49738L17.8458 2.48117L17.8702 2.47306L17.8864 2.46496L17.9026 2.45685L17.9188 2.44875L17.9351 2.44065L17.9675 2.43578L18 2.43254V2.46496L17.9919 2.4682L17.9838 2.47306L17.9805 2.47793L17.9757 2.48117L17.9708 2.48441L17.9675 2.48927L17.9643 2.49413L17.9594 2.49738L17.9546 2.50062L17.9513 2.50548L17.9481 2.51034L17.9432 2.51358L17.9351 2.52979L17.927 2.546L17.9221 2.54924C17.9199 2.55248 17.8512 2.64432 17.716 2.82479C17.5807 3.00632 17.5077 3.09816 17.4968 3.10033C17.486 3.10357 17.4709 3.11978 17.4514 3.14895C17.433 3.1792 17.3183 3.29969 17.1073 3.5104C16.8963 3.72111 16.6897 3.90858 16.4873 4.07283C16.2839 4.23816 16.1811 4.4413 16.1789 4.68227C16.1757 4.92215 16.1632 5.19339 16.1416 5.49593C16.1199 5.79849 16.0794 6.12535 16.0198 6.47654C15.9603 6.82773 15.8684 7.22483 15.7439 7.66786C15.6195 8.11088 15.468 8.54311 15.2894 8.96453C15.1109 9.38595 14.9243 9.76414 14.7295 10.0991C14.5347 10.4341 14.3562 10.7177 14.1939 10.9501C14.0316 11.1824 13.8666 11.4012 13.6988 11.6065C13.5311 11.8118 13.319 12.0431 13.0626 12.3002C12.8051 12.5563 12.6644 12.6968 12.6406 12.7216C12.6157 12.7454 12.5097 12.834 12.3225 12.9875C12.1363 13.142 11.9362 13.2965 11.7219 13.451C11.5088 13.6045 11.3129 13.7325 11.1344 13.8352C10.9558 13.9378 10.7405 14.055 10.4884 14.1869C10.2373 14.3198 9.96573 14.443 9.67358 14.5564C9.38142 14.6699 9.07304 14.7752 8.74842 14.8725C8.42381 14.9697 8.11001 15.0454 7.80703 15.0994C7.50407 15.1534 7.16051 15.1994 6.77637 15.2372L6.20018 15.2939V15.302H5.14518V15.2939L5.00721 15.2858C4.91525 15.2804 4.8395 15.275 4.77998 15.2696C4.72048 15.2642 4.49594 15.2345 4.1064 15.1805C3.71686 15.1264 3.41119 15.0724 3.18936 15.0184C2.96755 14.9643 2.63751 14.8617 2.19928 14.7104C1.76105 14.5591 1.38611 14.4062 1.07448 14.2517C0.763937 14.0983 0.569167 14.001 0.490171 13.96C0.412263 13.92 0.324617 13.8703 0.227232 13.8108L0.0811542 13.7217L0.0779243 13.7168L0.0730388 13.7136L0.0681695 13.7104L0.0649234 13.7055L0.0486925 13.6974L0.0324617 13.6893L0.0292317 13.6844L0.0243463 13.6812L0.019477 13.6779L0.0162308 13.6731L0.0130009 13.6682L0.00811542 13.665H0V13.6326L0.0162308 13.6358L0.0324617 13.6407L0.1055 13.6488C0.154193 13.6542 0.28675 13.6623 0.503156 13.6731C0.719578 13.6839 0.949504 13.6839 1.19297 13.6731C1.43643 13.6623 1.68531 13.6379 1.93959 13.6001C2.19387 13.5623 2.49414 13.4975 2.8404 13.4056C3.18667 13.3138 3.50479 13.2046 3.79479 13.0782C4.08369 12.9507 4.28927 12.8556 4.41156 12.793C4.53274 12.7314 4.71777 12.6168 4.96664 12.4493L5.33995 12.1981L5.34319 12.1932L5.34806 12.19L5.35295 12.1868L5.35618 12.1819L5.35942 12.177L5.36429 12.1738L5.36918 12.1706L5.37241 12.1657L5.38864 12.1608L5.40487 12.1576L5.40812 12.1414L5.41298 12.1252L5.41787 12.1219L5.4211 12.1171L5.29125 12.109C5.20469 12.1036 5.12083 12.0982 5.03968 12.0928C4.95852 12.0874 4.83139 12.063 4.65825 12.0198C4.48513 11.9766 4.29848 11.9118 4.09829 11.8253C3.89811 11.7389 3.70334 11.6362 3.51398 11.5174C3.32463 11.3985 3.18774 11.2996 3.10334 11.2207C3.02002 11.1429 2.91181 11.0327 2.77872 10.8901C2.64671 10.7464 2.53201 10.5989 2.43463 10.4476C2.33724 10.2963 2.24419 10.1218 2.15547 9.92407L2.02074 9.62908L2.01262 9.60476L2.00451 9.58045L1.99964 9.56424L1.99639 9.54803L2.02074 9.55128L2.04509 9.55614L2.22362 9.58045C2.34266 9.59666 2.52932 9.60206 2.78359 9.59666C3.03788 9.59126 3.21371 9.58045 3.31109 9.56424C3.40848 9.54803 3.46799 9.53722 3.48963 9.53183L3.52209 9.52372L3.56267 9.51562L3.60325 9.50751L3.60649 9.50265L3.61136 9.49941L3.61625 9.49617L3.61948 9.4913L3.58702 9.4832L3.55455 9.4751L3.52209 9.46699L3.48963 9.45889L3.45717 9.45078C3.43553 9.44538 3.39767 9.43457 3.34355 9.41837C3.28946 9.40216 3.14338 9.34272 2.90532 9.24007C2.66728 9.13743 2.47791 9.03747 2.33724 8.94022C2.19622 8.84269 2.06176 8.73602 1.93472 8.62091C1.80812 8.50421 1.66908 8.35401 1.51758 8.17032C1.3661 7.98663 1.23085 7.77321 1.11181 7.53009C0.992792 7.28696 0.903522 7.05465 0.844004 6.83312C0.784724 6.61291 0.745615 6.38776 0.727158 6.16048L0.697926 5.8201L0.714157 5.82334L0.730388 5.8282L0.746619 5.83631L0.762849 5.84441L0.77908 5.85252L0.795311 5.86062L1.04689 5.97408C1.21462 6.04972 1.42291 6.11456 1.67178 6.16858C1.92066 6.2226 2.06943 6.25233 2.11812 6.25773L2.19116 6.26583H2.33724L2.33401 6.26097L2.32913 6.25773L2.32426 6.25448L2.32101 6.24962L2.31778 6.24476L2.31289 6.24152L2.30803 6.23828L2.30478 6.23341L2.28855 6.22531L2.27232 6.21721L2.26909 6.21234L2.2642 6.2091L2.25933 6.20586L2.25609 6.201L2.23986 6.19289L2.22362 6.18479L2.22039 6.17993C2.21715 6.17775 2.17061 6.14318 2.08079 6.07619C1.99206 6.00812 1.89901 5.92006 1.80162 5.812C1.70424 5.70393 1.60685 5.59047 1.50947 5.47162C1.4119 5.35249 1.32501 5.22503 1.24977 5.09072C1.17404 4.95566 1.09396 4.78383 1.00956 4.57529C0.926245 4.36783 0.862945 4.15874 0.819657 3.94803C0.776386 3.73732 0.75204 3.52932 0.746619 3.324C0.741214 3.11869 0.746619 2.94311 0.762849 2.79723C0.77908 2.65136 0.811542 2.48656 0.860234 2.30287C0.908927 2.11918 0.979271 1.92468 1.07124 1.71937L1.2092 1.41141L1.21731 1.3871L1.22543 1.36279L1.23031 1.35955L1.23354 1.35468L1.23679 1.34982L1.24166 1.34658L1.24654 1.34982L1.24977 1.35468L1.25302 1.35955L1.25789 1.36279L1.26278 1.36603L1.26601 1.37089L1.26925 1.37575L1.27412 1.379L1.28224 1.3952L1.29035 1.41141L1.29524 1.41465L1.29847 1.41952L1.51758 1.66264C1.66366 1.82473 1.8368 2.00573 2.03697 2.20562C2.23716 2.40552 2.34807 2.50926 2.3697 2.51683C2.39135 2.52546 2.41839 2.55031 2.45086 2.59138C2.48332 2.63137 2.59153 2.727 2.77547 2.87827C2.95943 3.02955 3.20019 3.20515 3.49775 3.40505C3.79532 3.60494 4.12534 3.80215 4.48783 3.99665C4.85033 4.19115 5.23987 4.36674 5.65645 4.52343C6.07304 4.68011 6.3652 4.78276 6.53291 4.83139C6.70064 4.88001 6.98738 4.94214 7.39315 5.01778C7.79892 5.09343 8.10461 5.14205 8.31019 5.16366C8.51579 5.18526 8.65646 5.1977 8.73219 5.20094L8.84581 5.20418L8.84258 5.17987L8.83769 5.15555L8.80523 4.95295C8.78359 4.81788 8.77277 4.62878 8.77277 4.38566C8.77277 4.14253 8.79171 3.91832 8.82958 3.71301C8.86746 3.50769 8.92427 3.29969 9 3.08898C9.07575 2.87827 9.14988 2.70915 9.22236 2.58166C9.29595 2.45523 9.39225 2.31098 9.51127 2.14889C9.63031 1.98681 9.7845 1.81933 9.97385 1.64643C10.1632 1.47354 10.3796 1.31956 10.6231 1.18449C10.8665 1.04943 11.0911 0.946766 11.2967 0.876535C11.5023 0.806304 11.6754 0.760369 11.8161 0.738763C11.9567 0.717157 12.0271 0.704726 12.0271 0.701484Z" fill="#242B35"/>
</svg>
